<svg xmlns="http://www.w3.org/2000/svg" width="90.656" height="84.994" viewBox="0 0 90.656 84.994"><path d="M88.879,79.456c-12.12-1.995-17.582-14.409-17.8-14.936a.854.854,0,0,0-.051-.1,3.746,3.746,0,0,1-.425-3.082c.663-1.553,3.2-2.357,4.879-2.89.487-.153.946-.3,1.326-.448a10.26,10.26,0,0,0,3.615-2.159,3.433,3.433,0,0,0,1.1-2.47A3.887,3.887,0,0,0,78.606,50a5.264,5.264,0,0,0-1.972-.374A4.391,4.391,0,0,0,74.8,50a10.3,10.3,0,0,1-3.779,1.077,3.469,3.469,0,0,1-1.252-.272c.034-.567.068-1.15.108-1.751l.017-.261c.391-6.137.873-13.769-1.156-18.3a24.62,24.62,0,0,0-5.547-7.938,23.2,23.2,0,0,0-6.635-4.374A26.217,26.217,0,0,0,46.2,15.988h-.227l-1.558.017a26.316,26.316,0,0,0-10.364,2.187,23.068,23.068,0,0,0-6.613,4.369,24.7,24.7,0,0,0-5.525,7.921c-2.029,4.527-1.547,12.16-1.162,18.291v.011c.04.657.085,1.343.125,2.012a3.631,3.631,0,0,1-1.485.278,9.831,9.831,0,0,1-4.04-1.082,3.63,3.63,0,0,0-1.536-.317,5.429,5.429,0,0,0-2.714.759,3.755,3.755,0,0,0-1.921,2.453,3.385,3.385,0,0,0,1.292,3.179A11.142,11.142,0,0,0,13.852,58c.385.153.844.295,1.326.448,1.677.533,4.221,1.337,4.884,2.89a3.774,3.774,0,0,1-.431,3.082.8.8,0,0,0-.045.1,30,30,0,0,1-4.567,7.06,25.626,25.626,0,0,1-5.508,4.862A20.267,20.267,0,0,1,1.777,79.45,2.116,2.116,0,0,0,0,81.66a2.685,2.685,0,0,0,.221.924v.006A5.663,5.663,0,0,0,3.3,85.213a35.072,35.072,0,0,0,8.868,2.306,10.757,10.757,0,0,1,.544,1.949c.147.68.3,1.383.521,2.125a2.323,2.323,0,0,0,2.431,1.768,11.836,11.836,0,0,0,2.085-.289,23.711,23.711,0,0,1,4.754-.538,20.661,20.661,0,0,1,3.4.289c2.221.368,4.136,1.717,6.352,3.281,3.241,2.289,6.913,4.879,12.522,4.879q.229,0,.459-.017c.181.011.414.017.652.017,5.61,0,9.281-2.589,12.522-4.873l.006-.006c2.215-1.558,4.131-2.907,6.352-3.275a20.658,20.658,0,0,1,3.4-.289,23.824,23.824,0,0,1,4.754.5A11.486,11.486,0,0,0,75,93.3h.1a2.3,2.3,0,0,0,2.329-1.74c.215-.731.368-1.411.521-2.108a11.129,11.129,0,0,1,.538-1.938,35.315,35.315,0,0,0,8.868-2.306,5.686,5.686,0,0,0,3.065-2.618,2.693,2.693,0,0,0,.227-.935A2.109,2.109,0,0,0,88.879,79.456Z" transform="translate(0 -15.988)" fill="#ffeb3b"/></svg>