<svg xmlns="http://www.w3.org/2000/svg" width="105.391" height="98.809" viewBox="0 0 105.391 98.809"><defs><style>.a{fill:#ffeb3b;}</style></defs><path class="a" d="M103.325,89.772c-14.09-2.319-20.44-16.751-20.7-17.364a.991.991,0,0,0-.059-.119,4.355,4.355,0,0,1-.494-3.583c.771-1.8,3.722-2.74,5.672-3.359.567-.178,1.1-.349,1.541-.52a11.928,11.928,0,0,0,4.2-2.51,3.991,3.991,0,0,0,1.278-2.872c-.033-1.686-1.324-3.188-3.386-3.919a6.12,6.12,0,0,0-2.292-.435,5.1,5.1,0,0,0-2.134.435,11.978,11.978,0,0,1-4.394,1.252,4.033,4.033,0,0,1-1.456-.316c.04-.659.079-1.337.125-2.035l.02-.3c.455-7.134,1.014-16.007-1.344-21.277a28.621,28.621,0,0,0-6.449-9.229,26.968,26.968,0,0,0-7.714-5.085A30.479,30.479,0,0,0,53.71,15.988h-.263c-.652.007-1.713.02-1.811.02A30.594,30.594,0,0,0,39.587,18.55,26.818,26.818,0,0,0,31.9,23.629a28.714,28.714,0,0,0-6.423,9.209c-2.358,5.263-1.8,14.136-1.35,21.264v.013c.046.764.1,1.561.145,2.338a4.221,4.221,0,0,1-1.726.323,11.429,11.429,0,0,1-4.7-1.258,4.22,4.22,0,0,0-1.785-.369,6.311,6.311,0,0,0-3.155.883,4.366,4.366,0,0,0-2.233,2.852,3.935,3.935,0,0,0,1.5,3.7A12.954,12.954,0,0,0,16.1,64.826c.448.178.982.343,1.541.52,1.95.619,4.908,1.555,5.678,3.359a4.387,4.387,0,0,1-.5,3.583.934.934,0,0,0-.053.119,34.881,34.881,0,0,1-5.309,8.208,29.791,29.791,0,0,1-6.4,5.652,23.561,23.561,0,0,1-8.992,3.5A2.46,2.46,0,0,0,0,92.334a3.121,3.121,0,0,0,.257,1.074v.007c.507,1.179,1.673,2.174,3.57,3.05A40.772,40.772,0,0,0,14.14,99.145a12.506,12.506,0,0,1,.632,2.266c.171.79.349,1.607.606,2.47a2.7,2.7,0,0,0,2.826,2.055,13.759,13.759,0,0,0,2.424-.336,27.566,27.566,0,0,1,5.527-.626,24.019,24.019,0,0,1,3.952.336c2.582.428,4.809,2,7.384,3.814,3.768,2.661,8.036,5.672,14.558,5.672q.267,0,.534-.02c.211.013.481.02.758.02,6.521,0,10.79-3.01,14.558-5.665l.007-.007c2.576-1.811,4.8-3.379,7.384-3.807a24.016,24.016,0,0,1,3.952-.336,27.7,27.7,0,0,1,5.527.586,13.354,13.354,0,0,0,2.424.3h.119a2.668,2.668,0,0,0,2.707-2.022c.25-.85.428-1.64.606-2.45a12.938,12.938,0,0,1,.626-2.253,41.056,41.056,0,0,0,10.309-2.681,6.61,6.61,0,0,0,3.564-3.043,3.131,3.131,0,0,0,.263-1.087A2.451,2.451,0,0,0,103.325,89.772Z" transform="translate(0 -15.988)"/></svg>