<svg xmlns="http://www.w3.org/2000/svg" width="374.168" height="350.798" viewBox="0 0 374.168 350.798"><defs><style>.a{fill:#ffeb3b;}</style></defs><path class="a" d="M366.833,277.941c-50.024-8.232-72.568-59.472-73.481-61.647a3.524,3.524,0,0,0-.21-.421c-2.549-5.192-3.157-9.472-1.754-12.722,2.736-6.408,13.213-9.729,20.136-11.927,2.011-.631,3.906-1.239,5.472-1.848,6.829-2.689,11.693-5.613,14.921-8.91,3.835-3.952,4.584-7.741,4.537-10.2-.117-5.987-4.7-11.319-12.021-13.915a21.727,21.727,0,0,0-8.138-1.544,18.122,18.122,0,0,0-7.577,1.544c-5.847,2.736-11.085,4.233-15.6,4.443a14.32,14.32,0,0,1-5.168-1.123c.14-2.339.281-4.747.444-7.226l.07-1.076c1.614-25.328,3.6-56.829-4.771-75.539A101.614,101.614,0,0,0,260.8,43.07a95.745,95.745,0,0,0-27.386-18.054,108.208,108.208,0,0,0-42.727-9.027h-.935c-2.315.023-6.081.07-6.431.07a108.617,108.617,0,0,0-42.774,9.027,95.211,95.211,0,0,0-27.292,18.031,101.942,101.942,0,0,0-22.8,32.694C82.078,94.5,84.066,126,85.656,151.3v.047c.164,2.713.351,5.543.515,8.3a14.987,14.987,0,0,1-6.127,1.146c-4.724,0-10.337-1.5-16.675-4.467a14.981,14.981,0,0,0-6.338-1.31,22.406,22.406,0,0,0-11.2,3.134c-4.35,2.549-7.156,6.127-7.928,10.126-.491,2.619-.468,7.835,5.332,13.12,3.2,2.9,7.881,5.589,13.938,7.975,1.59.631,3.485,1.216,5.472,1.848,6.922,2.2,17.423,5.519,20.159,11.927,1.38,3.251.772,7.53-1.777,12.722a3.315,3.315,0,0,0-.187.421,123.838,123.838,0,0,1-18.85,29.14A105.766,105.766,0,0,1,39.257,265.5,83.65,83.65,0,0,1,7.335,277.917a8.734,8.734,0,0,0-7.32,9.121,11.08,11.08,0,0,0,.912,3.812v.023c1.8,4.186,5.94,7.718,12.676,10.828,8.232,3.812,20.533,7.016,36.6,9.518.819,1.543,1.66,5.4,2.245,8.045.608,2.806,1.239,5.706,2.152,8.77.982,3.321,3.508,7.3,10.033,7.3a48.848,48.848,0,0,0,8.606-1.193,97.865,97.865,0,0,1,19.621-2.222,85.274,85.274,0,0,1,14.032,1.193c9.168,1.52,17.072,7.086,26.216,13.541,13.377,9.448,28.532,20.136,51.684,20.136q.947,0,1.894-.07c.748.047,1.707.07,2.689.07,23.153,0,38.307-10.688,51.684-20.112l.023-.023c9.144-6.431,17.049-12,26.216-13.517a85.263,85.263,0,0,1,14.032-1.193,98.332,98.332,0,0,1,19.621,2.081,47.41,47.41,0,0,0,8.606,1.052h.421a9.472,9.472,0,0,0,9.612-7.18c.889-3.017,1.52-5.823,2.152-8.7.538-2.479,1.427-6.455,2.222-8,16.067-2.526,28.368-5.706,36.6-9.518,6.712-3.11,10.851-6.642,12.652-10.8a11.117,11.117,0,0,0,.935-3.859A8.7,8.7,0,0,0,366.833,277.941Z" transform="translate(0 -15.988)"/></svg>