<svg xmlns="http://www.w3.org/2000/svg" width="296.167" height="277.67" viewBox="0 0 296.167 277.67"><defs><style>.a{fill:#ffeb3b;}</style></defs><path class="a" d="M290.362,223.333c-39.6-6.516-57.441-47.074-58.163-48.8a2.791,2.791,0,0,0-.167-.333c-2.018-4.11-2.5-7.5-1.388-10.07,2.166-5.072,10.459-7.7,15.938-9.441,1.592-.5,3.091-.981,4.332-1.462,5.405-2.129,9.256-4.443,11.81-7.053,3.036-3.128,3.628-6.127,3.591-8.071-.093-4.739-3.721-8.96-9.515-11.014a17.2,17.2,0,0,0-6.442-1.222,14.344,14.344,0,0,0-6,1.222,33.661,33.661,0,0,1-12.347,3.517,11.334,11.334,0,0,1-4.091-.889c.111-1.851.222-3.758.352-5.72l.056-.852c1.277-20.048,2.851-44.982-3.776-59.792a80.431,80.431,0,0,0-18.123-25.934,75.785,75.785,0,0,0-21.677-14.291,85.65,85.65,0,0,0-33.82-7.145h-.74c-1.833.019-4.813.056-5.091.056a85.974,85.974,0,0,0-33.857,7.145,75.363,75.363,0,0,0-21.6,14.272A80.691,80.691,0,0,0,71.595,63.34c-6.627,14.791-5.054,39.725-3.795,59.755v.037c.13,2.147.278,4.387.407,6.572a11.863,11.863,0,0,1-4.85.907c-3.739,0-8.182-1.185-13.2-3.536a11.858,11.858,0,0,0-5.017-1.037,17.736,17.736,0,0,0-8.867,2.48c-3.443,2.018-5.664,4.85-6.275,8.015-.389,2.073-.37,6.2,4.221,10.385a36.4,36.4,0,0,0,11.033,6.312c1.259.5,2.758.963,4.332,1.462,5.479,1.74,13.791,4.369,15.957,9.441,1.092,2.573.611,5.961-1.407,10.07a2.625,2.625,0,0,0-.148.333A98.023,98.023,0,0,1,49.067,197.6a83.717,83.717,0,0,1-17.993,15.883,66.212,66.212,0,0,1-25.268,9.83,6.914,6.914,0,0,0-5.794,7.219,8.771,8.771,0,0,0,.722,3.017v.019c1.425,3.314,4.7,6.109,10.033,8.571,6.516,3.017,16.253,5.553,28.97,7.534a35.144,35.144,0,0,1,1.777,6.368c.481,2.221.981,4.517,1.7,6.942.777,2.629,2.777,5.776,7.941,5.776a38.665,38.665,0,0,0,6.812-.944A77.465,77.465,0,0,1,73.5,266.058,67.5,67.5,0,0,1,84.608,267c7.256,1.2,13.513,5.609,20.751,10.718,10.588,7.479,22.584,15.938,40.91,15.938q.75,0,1.5-.056c.592.037,1.351.056,2.129.056,18.326,0,30.322-8.46,40.91-15.92l.019-.019c7.238-5.091,13.495-9.5,20.751-10.7a67.49,67.49,0,0,1,11.107-.944,77.835,77.835,0,0,1,15.531,1.648,37.526,37.526,0,0,0,6.812.833h.333a7.5,7.5,0,0,0,7.608-5.683c.7-2.388,1.2-4.609,1.7-6.886a36.358,36.358,0,0,1,1.759-6.331c12.717-2,22.454-4.517,28.97-7.534,5.313-2.462,8.589-5.257,10.015-8.552a8.8,8.8,0,0,0,.74-3.054A6.889,6.889,0,0,0,290.362,223.333Z" transform="translate(0 -15.988)"/></svg>