<svg xmlns="http://www.w3.org/2000/svg" width="13.754" height="13.929" viewBox="0 0 13.754 13.929"><defs><style>.a{fill:#7d7979;}</style></defs><path class="a" d="M12.142,1.088H11.5V0H10.423V1.088H3.331V0H2.257V1.088H1.612A1.624,1.624,0,0,0,0,2.721V12.3a1.624,1.624,0,0,0,1.612,1.632H12.142A1.624,1.624,0,0,0,13.754,12.3V2.721A1.624,1.624,0,0,0,12.142,1.088ZM12.68,12.3a.541.541,0,0,1-.537.544H1.612a.541.541,0,0,1-.537-.544V5.115H12.68Zm0-8.271H1.075V2.721a.541.541,0,0,1,.537-.544h.645V3.265H3.331V2.176h7.092V3.265H11.5V2.176h.645a.541.541,0,0,1,.537.544Z"/></svg>