<svg xmlns="http://www.w3.org/2000/svg" width="16.857" height="13.162" viewBox="0 0 16.857 13.162"><defs><style>.a{fill:#7d7979;}</style></defs><path class="a" d="M16.61,68.781h-.281V63.222a.247.247,0,1,0-.494,0v4.5h-1.09V65.861a.247.247,0,0,0-.247-.247h-1.32a.247.247,0,0,0-.247.247v1.864h-1.09V62.941h.281a.247.247,0,0,0,.247-.247v-.809h3.465v.281a.247.247,0,0,0,.494,0v-.281h.281a.247.247,0,0,0,0-.494H12.983L8.676,58.858V58.19h1.6a.247.247,0,0,0,.247-.247v-1.32a.247.247,0,0,0-.247-.247h-1.6V56.36a.247.247,0,1,0-.494,0v2.5L3.875,61.392H.247a.247.247,0,0,0,0,.494H.528v4.5a.247.247,0,0,0,.494,0v-4.5H4.487v.809a.247.247,0,0,0,.247.247h.281v4.785H3.925V65.861a.247.247,0,0,0-.247-.247H2.358a.247.247,0,0,0-.247.247v1.864H1.022v-.281a.247.247,0,0,0-.494,0v1.337H.247a.247.247,0,0,0,0,.494H16.61a.247.247,0,0,0,0-.494ZM8.676,56.871h1.354V57.7H8.676Zm4.751,9.237h.826v1.618h-.826Zm-5-6.823,3.58,2.106H4.849ZM4.981,62.447v-.562h6.9v.562Zm6.368.494v4.785h-.562V62.941Zm-1.056,3.167v1.618H9.2V66.108ZM9.2,65.614v-.826h1.09v.826Zm0-1.32V62.941h1.09v1.354ZM8.71,62.941v4.785H8.148V62.941ZM6.564,65.614v-.826h1.09v.826Zm1.09.494v1.618H6.564V66.108Zm-1.09-1.813V62.941h1.09v1.354ZM6.07,62.941v4.785H5.508V62.941ZM2.605,66.108h.826v1.618H2.605Zm1.881,2.673H1.022V68.22H4.487Zm7.39,0h-6.9V68.22h6.9v.562Zm3.959,0H12.371V68.22h3.465v.562Z" transform="translate(0 -56.113)"/></svg>