<svg xmlns="http://www.w3.org/2000/svg" width="12.298" height="14.492" viewBox="0 0 12.298 14.492"><defs><style>.a{fill:#7d7979;}</style></defs><path class="a" d="M12.386,6.038,14.758,2.31a.259.259,0,0,0,.014-.249.222.222,0,0,0-.2-.129H7.866V.966A.233.233,0,0,0,7.643.725h-4.7V.242a.224.224,0,1,0-.447,0V14.25a.224.224,0,1,0,.447,0V8.212H5.413a1.258,1.258,0,0,0-.229.725A1.167,1.167,0,0,0,6.3,10.144h8.273a.222.222,0,0,0,.2-.129.258.258,0,0,0-.014-.249ZM2.947,1.208H7.419V7.729H2.947ZM6.3,9.661a.727.727,0,0,1,0-1.449H7.643a.233.233,0,0,0,.224-.242V2.415h6.283L11.93,5.9a.258.258,0,0,0,0,.274l2.219,3.486Z" transform="translate(-2.5)"/></svg>