<?xml version="1.0" ?><svg id="Layer_1" style="enable-background:new 0 0 100 100;" version="1.1" viewBox="0 0 100 100" xml:space="preserve" xmlns="http://www.w3.org/2000/svg" xmlns:xlink="http://www.w3.org/1999/xlink"><path d="M50.362,61.895c12.573,0,22.803-13.207,22.803-29.44S62.936,3.015,50.362,3.015c-12.574,0-22.803,13.207-22.803,29.44  S37.789,61.895,50.362,61.895z M50.362,7.015c10.368,0,18.803,11.412,18.803,25.44s-8.435,25.44-18.803,25.44  c-10.368,0-18.803-11.412-18.803-25.44S39.994,7.015,50.362,7.015z"/><path d="M11.584,96.985h76.832c1.104,0,2-0.896,2-2V83.273c0-12.135-5.383-23.52-14.769-31.235  c-0.452-0.372-1.047-0.527-1.619-0.424c-0.576,0.102-1.078,0.451-1.375,0.954c-5.202,8.833-13.536,14.107-22.292,14.107  c-8.908,0-17.318-5.417-22.498-14.49c-0.289-0.507-0.785-0.862-1.358-0.972c-0.572-0.111-1.165,0.035-1.623,0.398  C15.161,59.334,9.584,70.875,9.584,83.273v11.711C9.584,96.089,10.479,96.985,11.584,96.985z M13.584,83.273  c0-10.414,4.366-20.155,12.055-27.066c5.969,9.103,15.063,14.468,24.724,14.468c9.484,0,18.478-5.208,24.458-14.049  c7.396,6.885,11.596,16.474,11.596,26.647v9.711H13.584V83.273z"/></svg>